<mxfile host="app.diagrams.net" agent="Mozilla/5.0 (X11; Linux x86_64) AppleWebKit/537.36 (KHTML, like Gecko) Chrome/127.0.0.0 Safari/537.36" version="24.7.6">
  <diagram name="PÃ¡gina-1" id="ul3XOQKA3NjWu0_DsMnJ">
    <mxGraphModel dx="759" dy="492" grid="1" gridSize="10" guides="1" tooltips="1" connect="1" arrows="1" fold="1" page="1" pageScale="1" pageWidth="640" pageHeight="400" math="0" shadow="0">
      <root>
        <mxCell id="0" />
        <mxCell id="1" parent="0" />
        <mxCell id="L6sDGYGXiBnf8Pp3MnhQ-54" value="" style="group" vertex="1" connectable="0" parent="1">
          <mxGeometry x="35" y="25" width="570" height="350" as="geometry" />
        </mxCell>
        <mxCell id="L6sDGYGXiBnf8Pp3MnhQ-1" value="Linux Kernel" style="rounded=1;whiteSpace=wrap;html=1;sketch=1;curveFitting=1;jiggle=2;fillColor=#dae8fc;strokeColor=#6c8ebf;" vertex="1" parent="L6sDGYGXiBnf8Pp3MnhQ-54">
          <mxGeometry y="310" width="570" height="40" as="geometry" />
        </mxCell>
        <mxCell id="L6sDGYGXiBnf8Pp3MnhQ-2" value="KVM" style="rounded=0;whiteSpace=wrap;html=1;sketch=1;curveFitting=1;jiggle=2;fillColor=#ffe6cc;strokeColor=#d79b00;" vertex="1" parent="L6sDGYGXiBnf8Pp3MnhQ-54">
          <mxGeometry x="10" y="320" width="80" height="20" as="geometry" />
        </mxCell>
        <mxCell id="L6sDGYGXiBnf8Pp3MnhQ-3" value="QUEMU" style="rounded=1;whiteSpace=wrap;html=1;sketch=1;curveFitting=1;jiggle=2;fillColor=#ffe6cc;strokeColor=#d79b00;" vertex="1" parent="L6sDGYGXiBnf8Pp3MnhQ-54">
          <mxGeometry y="270" width="290" height="30" as="geometry" />
        </mxCell>
        <mxCell id="L6sDGYGXiBnf8Pp3MnhQ-4" value="AppArmor" style="rounded=0;whiteSpace=wrap;html=1;sketch=1;curveFitting=1;jiggle=2;fillColor=#ffe6cc;strokeColor=#d79b00;" vertex="1" parent="L6sDGYGXiBnf8Pp3MnhQ-54">
          <mxGeometry x="390" y="320" width="80" height="20" as="geometry" />
        </mxCell>
        <mxCell id="L6sDGYGXiBnf8Pp3MnhQ-5" value="cgroups" style="rounded=0;whiteSpace=wrap;html=1;sketch=1;curveFitting=1;jiggle=2;fillColor=#ffe6cc;strokeColor=#d79b00;" vertex="1" parent="L6sDGYGXiBnf8Pp3MnhQ-54">
          <mxGeometry x="480" y="320" width="80" height="20" as="geometry" />
        </mxCell>
        <mxCell id="L6sDGYGXiBnf8Pp3MnhQ-9" value="" style="rounded=1;whiteSpace=wrap;html=1;sketch=1;curveFitting=1;jiggle=2;fillColor=#f5f5f5;strokeColor=#666666;fontColor=#333333;" vertex="1" parent="L6sDGYGXiBnf8Pp3MnhQ-54">
          <mxGeometry x="10" y="170" width="130" height="90" as="geometry" />
        </mxCell>
        <mxCell id="L6sDGYGXiBnf8Pp3MnhQ-12" value="Guest OS" style="rounded=0;whiteSpace=wrap;html=1;sketch=1;curveFitting=1;jiggle=2;fillColor=#dae8fc;strokeColor=#6c8ebf;" vertex="1" parent="L6sDGYGXiBnf8Pp3MnhQ-54">
          <mxGeometry x="20" y="230" width="110" height="20" as="geometry" />
        </mxCell>
        <mxCell id="L6sDGYGXiBnf8Pp3MnhQ-13" value="App" style="rounded=0;whiteSpace=wrap;html=1;sketch=1;curveFitting=1;jiggle=2;" vertex="1" parent="L6sDGYGXiBnf8Pp3MnhQ-54">
          <mxGeometry x="20" y="200" width="50" height="20" as="geometry" />
        </mxCell>
        <mxCell id="L6sDGYGXiBnf8Pp3MnhQ-14" value="App" style="rounded=0;whiteSpace=wrap;html=1;sketch=1;curveFitting=1;jiggle=2;" vertex="1" parent="L6sDGYGXiBnf8Pp3MnhQ-54">
          <mxGeometry x="80" y="200" width="50" height="20" as="geometry" />
        </mxCell>
        <mxCell id="L6sDGYGXiBnf8Pp3MnhQ-16" value="" style="rounded=1;whiteSpace=wrap;html=1;sketch=1;curveFitting=1;jiggle=2;fillColor=#f5f5f5;fontColor=#333333;strokeColor=#666666;" vertex="1" parent="L6sDGYGXiBnf8Pp3MnhQ-54">
          <mxGeometry x="150" y="170" width="130" height="90" as="geometry" />
        </mxCell>
        <mxCell id="L6sDGYGXiBnf8Pp3MnhQ-17" value="Guest OS" style="rounded=0;whiteSpace=wrap;html=1;sketch=1;curveFitting=1;jiggle=2;fillColor=#dae8fc;strokeColor=#6c8ebf;" vertex="1" parent="L6sDGYGXiBnf8Pp3MnhQ-54">
          <mxGeometry x="160" y="230" width="110" height="20" as="geometry" />
        </mxCell>
        <mxCell id="L6sDGYGXiBnf8Pp3MnhQ-18" value="App" style="rounded=0;whiteSpace=wrap;html=1;sketch=1;curveFitting=1;jiggle=2;" vertex="1" parent="L6sDGYGXiBnf8Pp3MnhQ-54">
          <mxGeometry x="160" y="200" width="50" height="20" as="geometry" />
        </mxCell>
        <mxCell id="L6sDGYGXiBnf8Pp3MnhQ-19" value="App" style="rounded=0;whiteSpace=wrap;html=1;sketch=1;curveFitting=1;jiggle=2;" vertex="1" parent="L6sDGYGXiBnf8Pp3MnhQ-54">
          <mxGeometry x="220" y="200" width="50" height="20" as="geometry" />
        </mxCell>
        <mxCell id="L6sDGYGXiBnf8Pp3MnhQ-20" value="" style="rounded=1;whiteSpace=wrap;html=1;sketch=1;curveFitting=1;jiggle=2;fillColor=#f5f5f5;fontColor=#333333;strokeColor=#666666;" vertex="1" parent="L6sDGYGXiBnf8Pp3MnhQ-54">
          <mxGeometry x="300" y="240" width="130" height="60" as="geometry" />
        </mxCell>
        <mxCell id="L6sDGYGXiBnf8Pp3MnhQ-22" value="App" style="rounded=0;whiteSpace=wrap;html=1;sketch=1;curveFitting=1;jiggle=2;" vertex="1" parent="L6sDGYGXiBnf8Pp3MnhQ-54">
          <mxGeometry x="310" y="270" width="50" height="20" as="geometry" />
        </mxCell>
        <mxCell id="L6sDGYGXiBnf8Pp3MnhQ-23" value="App" style="rounded=0;whiteSpace=wrap;html=1;sketch=1;curveFitting=1;jiggle=2;" vertex="1" parent="L6sDGYGXiBnf8Pp3MnhQ-54">
          <mxGeometry x="370" y="270" width="50" height="20" as="geometry" />
        </mxCell>
        <mxCell id="L6sDGYGXiBnf8Pp3MnhQ-28" value="" style="rounded=1;whiteSpace=wrap;html=1;sketch=1;curveFitting=1;jiggle=2;fillColor=#f5f5f5;fontColor=#333333;strokeColor=#666666;" vertex="1" parent="L6sDGYGXiBnf8Pp3MnhQ-54">
          <mxGeometry x="440" y="240" width="130" height="60" as="geometry" />
        </mxCell>
        <mxCell id="L6sDGYGXiBnf8Pp3MnhQ-29" value="App" style="rounded=0;whiteSpace=wrap;html=1;sketch=1;curveFitting=1;jiggle=2;" vertex="1" parent="L6sDGYGXiBnf8Pp3MnhQ-54">
          <mxGeometry x="450" y="270" width="50" height="20" as="geometry" />
        </mxCell>
        <mxCell id="L6sDGYGXiBnf8Pp3MnhQ-30" value="App" style="rounded=0;whiteSpace=wrap;html=1;sketch=1;curveFitting=1;jiggle=2;" vertex="1" parent="L6sDGYGXiBnf8Pp3MnhQ-54">
          <mxGeometry x="510" y="270" width="50" height="20" as="geometry" />
        </mxCell>
        <mxCell id="L6sDGYGXiBnf8Pp3MnhQ-31" value="" style="rounded=1;whiteSpace=wrap;html=1;sketch=1;curveFitting=1;jiggle=2;fillColor=#dae8fc;strokeColor=#6c8ebf;" vertex="1" parent="L6sDGYGXiBnf8Pp3MnhQ-54">
          <mxGeometry y="100" width="570" height="60" as="geometry" />
        </mxCell>
        <mxCell id="L6sDGYGXiBnf8Pp3MnhQ-32" value="pveproxy" style="rounded=0;whiteSpace=wrap;html=1;sketch=1;curveFitting=1;jiggle=2;fillColor=#ffe6cc;strokeColor=#d79b00;" vertex="1" parent="L6sDGYGXiBnf8Pp3MnhQ-54">
          <mxGeometry x="10" y="130" width="100" height="20" as="geometry" />
        </mxCell>
        <mxCell id="L6sDGYGXiBnf8Pp3MnhQ-33" value="pvedaemon" style="rounded=0;whiteSpace=wrap;html=1;sketch=1;curveFitting=1;jiggle=2;fillColor=#ffe6cc;strokeColor=#d79b00;" vertex="1" parent="L6sDGYGXiBnf8Pp3MnhQ-54">
          <mxGeometry x="120" y="130" width="100" height="20" as="geometry" />
        </mxCell>
        <mxCell id="L6sDGYGXiBnf8Pp3MnhQ-34" value="pvestadt" style="rounded=0;whiteSpace=wrap;html=1;sketch=1;curveFitting=1;jiggle=2;fillColor=#ffe6cc;strokeColor=#d79b00;" vertex="1" parent="L6sDGYGXiBnf8Pp3MnhQ-54">
          <mxGeometry x="230" y="130" width="110" height="20" as="geometry" />
        </mxCell>
        <mxCell id="L6sDGYGXiBnf8Pp3MnhQ-35" value="pve-ha-lm" style="rounded=0;whiteSpace=wrap;html=1;sketch=1;curveFitting=1;jiggle=2;fillColor=#ffe6cc;strokeColor=#d79b00;" vertex="1" parent="L6sDGYGXiBnf8Pp3MnhQ-54">
          <mxGeometry x="350" y="130" width="100" height="20" as="geometry" />
        </mxCell>
        <mxCell id="L6sDGYGXiBnf8Pp3MnhQ-36" value="pve-cluster" style="rounded=0;whiteSpace=wrap;html=1;sketch=1;curveFitting=1;jiggle=2;fillColor=#ffe6cc;strokeColor=#d79b00;" vertex="1" parent="L6sDGYGXiBnf8Pp3MnhQ-54">
          <mxGeometry x="460" y="130" width="100" height="20" as="geometry" />
        </mxCell>
        <mxCell id="L6sDGYGXiBnf8Pp3MnhQ-37" value="" style="rounded=1;whiteSpace=wrap;html=1;sketch=1;curveFitting=1;jiggle=2;fillColor=#dae8fc;strokeColor=#6c8ebf;" vertex="1" parent="L6sDGYGXiBnf8Pp3MnhQ-54">
          <mxGeometry width="570" height="90" as="geometry" />
        </mxCell>
        <mxCell id="L6sDGYGXiBnf8Pp3MnhQ-39" value="pct" style="rounded=0;whiteSpace=wrap;html=1;sketch=1;curveFitting=1;jiggle=2;fillColor=#ffe6cc;strokeColor=#d79b00;" vertex="1" parent="L6sDGYGXiBnf8Pp3MnhQ-54">
          <mxGeometry x="10" y="60" width="130" height="20" as="geometry" />
        </mxCell>
        <mxCell id="L6sDGYGXiBnf8Pp3MnhQ-40" value="pvecm" style="rounded=0;whiteSpace=wrap;html=1;sketch=1;curveFitting=1;jiggle=2;fillColor=#ffe6cc;strokeColor=#d79b00;" vertex="1" parent="L6sDGYGXiBnf8Pp3MnhQ-54">
          <mxGeometry x="150" y="60" width="130" height="20" as="geometry" />
        </mxCell>
        <mxCell id="L6sDGYGXiBnf8Pp3MnhQ-41" value="pveceph" style="rounded=0;whiteSpace=wrap;html=1;sketch=1;curveFitting=1;jiggle=2;fillColor=#ffe6cc;strokeColor=#d79b00;" vertex="1" parent="L6sDGYGXiBnf8Pp3MnhQ-54">
          <mxGeometry x="290" y="60" width="130" height="20" as="geometry" />
        </mxCell>
        <mxCell id="L6sDGYGXiBnf8Pp3MnhQ-42" value="pve-firewall" style="rounded=0;whiteSpace=wrap;html=1;sketch=1;curveFitting=1;jiggle=2;fillColor=#ffe6cc;strokeColor=#d79b00;" vertex="1" parent="L6sDGYGXiBnf8Pp3MnhQ-54">
          <mxGeometry x="430" y="60" width="130" height="20" as="geometry" />
        </mxCell>
        <mxCell id="L6sDGYGXiBnf8Pp3MnhQ-43" value="qm" style="rounded=0;whiteSpace=wrap;html=1;sketch=1;curveFitting=1;jiggle=2;fillColor=#ffe6cc;strokeColor=#d79b00;" vertex="1" parent="L6sDGYGXiBnf8Pp3MnhQ-54">
          <mxGeometry x="10" y="30" width="130" height="20" as="geometry" />
        </mxCell>
        <mxCell id="L6sDGYGXiBnf8Pp3MnhQ-44" value="pvesm" style="rounded=0;whiteSpace=wrap;html=1;sketch=1;curveFitting=1;jiggle=2;fillColor=#ffe6cc;strokeColor=#d79b00;" vertex="1" parent="L6sDGYGXiBnf8Pp3MnhQ-54">
          <mxGeometry x="150" y="30" width="130" height="20" as="geometry" />
        </mxCell>
        <mxCell id="L6sDGYGXiBnf8Pp3MnhQ-45" value="pveum" style="rounded=0;whiteSpace=wrap;html=1;sketch=1;curveFitting=1;jiggle=2;fillColor=#ffe6cc;strokeColor=#d79b00;" vertex="1" parent="L6sDGYGXiBnf8Pp3MnhQ-54">
          <mxGeometry x="290" y="30" width="130" height="20" as="geometry" />
        </mxCell>
        <mxCell id="L6sDGYGXiBnf8Pp3MnhQ-46" value="ha-manager" style="rounded=0;whiteSpace=wrap;html=1;sketch=1;curveFitting=1;jiggle=2;fillColor=#ffe6cc;strokeColor=#d79b00;" vertex="1" parent="L6sDGYGXiBnf8Pp3MnhQ-54">
          <mxGeometry x="430" y="30" width="130" height="20" as="geometry" />
        </mxCell>
        <mxCell id="L6sDGYGXiBnf8Pp3MnhQ-47" value="VM" style="text;html=1;align=center;verticalAlign=middle;whiteSpace=wrap;rounded=0;sketch=1;curveFitting=1;jiggle=2;" vertex="1" parent="L6sDGYGXiBnf8Pp3MnhQ-54">
          <mxGeometry x="45" y="170" width="60" height="30" as="geometry" />
        </mxCell>
        <mxCell id="L6sDGYGXiBnf8Pp3MnhQ-48" value="VM" style="text;html=1;align=center;verticalAlign=middle;whiteSpace=wrap;rounded=0;sketch=1;curveFitting=1;jiggle=2;" vertex="1" parent="L6sDGYGXiBnf8Pp3MnhQ-54">
          <mxGeometry x="185" y="170" width="60" height="30" as="geometry" />
        </mxCell>
        <mxCell id="L6sDGYGXiBnf8Pp3MnhQ-49" value="Container" style="text;html=1;align=center;verticalAlign=middle;whiteSpace=wrap;rounded=0;sketch=1;curveFitting=1;jiggle=2;" vertex="1" parent="L6sDGYGXiBnf8Pp3MnhQ-54">
          <mxGeometry x="335" y="240" width="60" height="30" as="geometry" />
        </mxCell>
        <mxCell id="L6sDGYGXiBnf8Pp3MnhQ-50" value="Container" style="text;html=1;align=center;verticalAlign=middle;whiteSpace=wrap;rounded=0;sketch=1;curveFitting=1;jiggle=2;" vertex="1" parent="L6sDGYGXiBnf8Pp3MnhQ-54">
          <mxGeometry x="475" y="240" width="60" height="30" as="geometry" />
        </mxCell>
        <mxCell id="L6sDGYGXiBnf8Pp3MnhQ-51" value="Services" style="text;html=1;align=center;verticalAlign=middle;whiteSpace=wrap;rounded=0;sketch=1;curveFitting=1;jiggle=2;" vertex="1" parent="L6sDGYGXiBnf8Pp3MnhQ-54">
          <mxGeometry x="255" y="100" width="60" height="30" as="geometry" />
        </mxCell>
        <mxCell id="L6sDGYGXiBnf8Pp3MnhQ-52" value="User Tools" style="text;html=1;align=center;verticalAlign=middle;whiteSpace=wrap;rounded=0;sketch=1;curveFitting=1;jiggle=2;" vertex="1" parent="L6sDGYGXiBnf8Pp3MnhQ-54">
          <mxGeometry x="255" width="60" height="30" as="geometry" />
        </mxCell>
      </root>
    </mxGraphModel>
  </diagram>
</mxfile>
